# xmcd
#
# Track frame offsets:
#	150
#	13571
#	28901
#	41103
#	50533
#	65214
#	79265
#	98874
#	114127
#	129320
#	147619
#	162932
#	177808
#	190046
#	202351
#
# Disc length: 2897 seconds
# Revision: 1
# Processed by: cddbd v1.5.2PL0 Copyright (c) Steve Scherf et al.
# Submitted via: dBpowerAMP V12.0
#
DISCID=d90b4f0f
DTITLE=Elkville String Band - Over the Mountain
DYEAR=2008
DGENRE=Country
TTITLE0=There's a Star Spangled Banner Waving Somewhere
TTITLE1=Otto Wood
TTITLE2=The Elkville Shuffle
TTITLE3=Cindy
TTITLE4=Over the Mountain
TTITLE5=Suicide Blues
TTITLE6=Indian Princess
TTITLE7=Where the Roses Never Fade
TTITLE8=The Freight Wreck at Altoona
TTITLE9=Drake's Waltz
TTITLE10=Jesse James
TTITLE11=Bring Me a Leaf from the Sea
TTITLE12=Tennessee Grey Eagle
TTITLE13=Cat Call Waltz
TTITLE14=Shall We Gather at the River
EXTD=
EXTT0=
EXTT1=
EXTT2=
EXTT3=
EXTT4=
EXTT5=
EXTT6=
EXTT7=
EXTT8=
EXTT9=
EXTT10=
EXTT11=
EXTT12=
EXTT13=
EXTT14=
PLAYORDER=
